<?xml version="1.0" encoding="utf-8" standalone="no"?>
<!DOCTYPE svg PUBLIC "-//W3C//DTD SVG 1.1//EN" "http://www.w3.org/Graphics/SVG/1.1/DTD/svg11.dtd">
<svg version="1.1" width="612pt" height="792pt" viewBox="0 0 612 792" overflow="visible" xmlns="http://www.w3.org/2000/svg">
  <path d="M375.5336,270.5341 L375.5336,268.2554 L373.2407,268.2554 L373.2407,283.2866 L375.7884,283.2866 L375.7884,275.4172 C375.7884,274.3415 375.9299,273.3507 376.213,272.4449 C376.4017,271.8504 376.7178,271.3857 377.1613,271.0508 C377.6048,270.7158 378.1049,270.5483 378.6616,270.5483 C379.2844,270.5483 379.9071,270.7323 380.5299,271.1003 L381.4074,268.7366 C380.5204,268.1894 379.6476,267.9157 378.789,267.9157 C378.1945,267.9157 377.6496,268.0855 377.1542,268.4252 C376.6588,268.7649 376.1187,269.4679 375.5336,270.5341 z" stroke="#000000" stroke-width="0.24" fill="none" />
  <path d="M366.999,281.0786 L366.999,283.2866 L369.2777,283.2866 L369.2777,268.2554 L366.73,268.2554 L366.73,276.3088 C366.73,277.5921 366.5909,278.5711 366.3125,279.2457 C366.0341,279.9204 365.56,280.4535 364.89,280.8451 C364.2201,281.2367 363.503,281.4325 362.7387,281.4325 C361.9744,281.4325 361.3328,281.2414 360.8138,280.8593 C360.2948,280.4771 359.9551,279.951 359.7947,279.2811 L359.639,276.5919 L359.639,268.2554 L357.0914,268.2554 L357.0914,277.5685 L357.2471,279.9464 C357.398,280.6918 357.6599,281.3216 358.0326,281.8358 C358.4053,282.3501 358.9762,282.7771 359.7452,283.1168 C360.5142,283.4565 361.3422,283.6263 362.2292,283.6263 C364.239,283.6263 365.8289,282.7771 366.999,281.0786 z" stroke="#000000" stroke-width="0.24" fill="none" />
  <path d="M354.657,281.0079 L353.5388,281.1069 L352.6684,280.9229 L352.2296,280.4276 L352.0951,279.0263 L352.0951,270.2369 L354.657,270.2369 L354.657,268.2554 L352.0951,268.2554 L352.0951,263.0044 L349.5616,264.533 L349.5616,268.2554 L347.6933,268.2554 L347.6933,270.2369 L349.5616,270.2369 L349.5616,278.8848 C349.5616,280.4134 349.6654,281.416 349.873,281.8925 C350.0806,282.369 350.4391,282.7535 350.9487,283.046 C351.4582,283.3385 352.1753,283.4848 353.1,283.4848 L355.0249,283.2583 z" stroke="#000000" stroke-width="0.24" fill="none" />
  <path d="M342.8245,281.0786 L342.8245,283.2866 L345.1032,283.2866 L345.1032,268.2554 L342.5555,268.2554 L342.5555,276.3088 C342.5555,277.5921 342.4164,278.5711 342.138,279.2457 C341.8596,279.9204 341.3855,280.4535 340.7156,280.8451 C340.0456,281.2367 339.3285,281.4325 338.5642,281.4325 C337.7999,281.4325 337.1583,281.2414 336.6393,280.8593 C336.1203,280.4771 335.7806,279.951 335.6202,279.2811 L335.4645,276.5919 L335.4645,268.2554 L332.9169,268.2554 L332.9169,277.5685 L333.0726,279.9464 C333.2235,280.6918 333.4854,281.3216 333.8581,281.8358 C334.2308,282.3501 334.8017,282.7771 335.5707,283.1168 C336.3397,283.4565 337.1677,283.6263 338.0547,283.6263 C340.0645,283.6263 341.6544,282.7771 342.8245,281.0786 z" stroke="#000000" stroke-width="0.24" fill="none" />
  <path d="M315.7343,283.2866 L318.4801,283.2866 L318.4801,273.8603 L328.2179,273.8603 L328.2179,271.4117 L318.4801,271.4117 L318.4801,264.9859 L329.7323,264.9859 L329.7323,262.5373 L315.7343,262.5373 z" stroke="#000000" stroke-width="0.24" fill="none" />
  <path d="M383.4939,303.8556 C383.4939,305.9503 383.9099,307.4788 384.7418,308.441 C385.5737,309.4032 386.6161,309.8843 387.8689,309.8843 C389.1118,309.8843 390.1541,309.4057 390.9961,308.4485 C391.838,307.4914 392.2589,305.9904 392.2589,303.9458 C392.2589,301.9913 391.8254,300.5179 390.9585,299.5257 C390.0915,298.5334 389.0466,298.0373 387.8238,298.0373 C386.6211,298.0373 385.5988,298.5259 384.7568,299.5031 C383.9149,300.4803 383.4939,301.9312 383.4939,303.8556 z" stroke="#000000" stroke-width="0.24" fill="none" />
  <path d="M381.2538,313.4474 C381.2137,315.1714 381.78,316.4618 382.9527,317.3188 C384.1254,318.1758 385.6639,318.6042 387.5682,318.6042 C389.1719,318.6042 390.5225,318.3035 391.62,317.7021 C392.7175,317.1008 393.5193,316.2814 394.0255,315.244 C394.5316,314.2067 394.7847,312.4452 394.7847,309.9595 L394.7847,296.158 L392.289,296.158 L392.289,298.0824 C391.0662,296.5589 389.5127,295.7972 387.6284,295.7972 C386.2151,295.7972 384.9848,296.148 383.9374,296.8496 C382.89,297.5512 382.0907,298.546 381.5395,299.8339 C380.9882,301.1218 380.7126,302.5275 380.7126,304.051 C380.7126,306.2661 381.314,308.1654 382.5167,309.749 C383.7195,311.3326 385.4183,312.1244 387.6133,312.1244 C389.3773,312.1244 390.8507,311.4279 392.0334,310.0347 C392.0435,311.7987 391.9783,312.9563 391.838,313.5076 C391.5974,314.4096 391.1364,315.1112 390.4548,315.6124 C389.7733,316.1135 388.8061,316.3641 387.5532,316.3641 C386.3905,316.3641 385.4734,316.1135 384.8019,315.6124 C384.3008,315.2415 383.9951,314.6502 383.8848,313.8383 z" stroke="#000000" stroke-width="0.24" fill="none" />
  <path d="M366.3999,304.1412 C366.3999,306.1859 366.8459,307.7169 367.738,308.7342 C368.63,309.7515 369.7526,310.2602 371.1057,310.2602 C372.4487,310.2602 373.5663,309.749 374.4583,308.7267 C375.3503,307.7043 375.7964,306.1458 375.7964,304.051 C375.7964,302.0765 375.3478,300.5806 374.4508,299.5633 C373.5537,298.546 372.4387,298.0373 371.1057,298.0373 C369.7526,298.0373 368.63,298.5434 367.738,299.5558 C366.8459,300.5681 366.3999,302.0966 366.3999,304.1412 z" stroke="#000000" stroke-width="0.24" fill="none" />
  <path d="M363.6186,304.1412 C363.6186,306.8374 364.3076,308.9021 365.6858,310.3354 C367.0639,311.7686 368.8706,312.4853 371.1057,312.4853 C372.4988,312.4853 373.7843,312.1595 374.962,311.508 C376.1396,310.8565 377.0367,309.942 377.6531,308.7643 C378.2695,307.5866 378.5777,305.9704 378.5777,303.9157 C378.5777,301.3799 377.8811,299.3929 376.4879,297.9546 C375.0948,296.5163 373.3007,295.7972 371.1057,295.7972 C369.1312,295.7972 367.4573,296.3885 366.0842,297.5712 C364.4405,298.9945 363.6186,301.1845 363.6186,304.1412 z" stroke="#000000" stroke-width="0.24" fill="none" />
  <path d="M357.7251,312.1244 L360.4313,312.1244 L360.4313,290.0841 L357.7251,290.0841 z" stroke="#000000" stroke-width="0.24" fill="none" />
  <path d="M350.8545,304.1111 C349.8722,304.5121 348.3989,304.8528 346.4344,305.1335 C345.3218,305.2939 344.535,305.4742 344.074,305.6747 C343.6129,305.8752 343.2571,306.1683 343.0066,306.5542 C342.756,306.9401 342.6307,307.3686 342.6307,307.8397 C342.6307,308.5613 342.9038,309.1627 343.4501,309.6438 C343.9963,310.1249 344.7956,310.3654 345.848,310.3654 C346.8904,310.3654 347.8175,310.1374 348.6294,309.6814 C349.4412,309.2253 350.0376,308.6014 350.4185,307.8096 C350.7091,307.1982 350.8545,306.2961 350.8545,305.1034 z" stroke="#000000" stroke-width="0.24" fill="none" />
  <path d="M351.08,310.1549 C351.1602,310.9066 351.3406,311.5631 351.6212,312.1244 L354.4477,312.1244 C354.1069,311.513 353.8788,310.8741 353.7636,310.2076 C353.6483,309.541 353.5907,307.9499 353.5907,305.4342 L353.5907,301.8259 L353.4554,299.3302 C353.295,298.5885 353.0144,297.9746 352.6135,297.4885 C352.2126,297.0024 351.5861,296.599 350.7342,296.2783 C349.8822,295.9576 348.7747,295.7972 347.4116,295.7972 C346.0385,295.7972 344.8307,295.9851 343.7883,296.361 C342.7459,296.7368 341.9491,297.273 341.3979,297.9696 C340.8466,298.6662 340.4507,299.5808 340.2102,300.7134 L342.8562,301.0742 C343.1469,299.9416 343.5954,299.1523 344.2018,298.7063 C344.8082,298.2603 345.7478,298.0373 347.0207,298.0373 C348.3838,298.0373 349.4112,298.343 350.1028,298.9544 C350.6139,299.4054 350.8695,300.1822 350.8695,301.2847 L350.8545,301.9913 C349.8221,302.3521 348.2134,302.6628 346.0284,302.9234 L343.623,303.3294 C342.9013,303.5298 342.2523,303.8255 341.676,304.2164 C341.0997,304.6073 340.6336,305.126 340.2778,305.7724 C339.922,306.4189 339.7441,307.1331 339.7441,307.9148 C339.7441,309.2479 340.2152,310.3429 341.1573,311.1998 C342.0995,312.0568 343.4475,312.4853 345.2016,312.4853 C346.264,312.4853 347.2588,312.3098 348.1859,311.959 C349.113,311.6082 350.0777,311.0069 351.08,310.1549 z" stroke="#000000" stroke-width="0.24" fill="none" />
  <path d="M325.9727,298.4282 L325.9727,296.158 L323.5371,296.158 L323.5371,312.1244 L326.2433,312.1244 L326.2433,303.4045 C326.2433,301.3599 326.6617,299.9717 327.4987,299.24 C328.3356,298.5084 329.3304,298.1425 330.483,298.1425 C331.2046,298.1425 331.8336,298.3054 332.3698,298.6311 C332.906,298.9569 333.2794,299.3929 333.4898,299.9391 C333.7003,300.4854 333.8055,301.3098 333.8055,302.4123 L333.8055,312.1244 L336.5117,312.1244 L336.5117,302.307 L336.3614,299.676 C336.201,298.9043 335.9204,298.2377 335.5195,297.6765 C335.1186,297.1152 334.5147,296.6617 333.7078,296.3159 C332.901,295.9701 332.0165,295.7972 331.0543,295.7972 C328.8392,295.7972 327.1454,296.6742 325.9727,298.4282 z" stroke="#000000" stroke-width="0.24" fill="none" />
  <path d="M300.2538,277.8268 C298.6612,273.6178 297.4781,270.1596 296.7046,267.4522 C296.0675,270.6601 295.1689,273.8453 294.0085,277.0077 L288.5141,291.6823 L305.4752,291.6823 z" stroke="#000000" stroke-width="0.24" fill="none" />
  <path d="M274.0785,312.2267 L281.1086,312.2267 L286.603,297.0743 L307.5228,297.0743 L313.3585,312.2267 L320.9005,312.2267 L300.4244,262.1967 L293.2919,262.1967 z" stroke="#000000" stroke-width="0.24" fill="none" />
  <path d="M384.8467,274.3273 L393.2399,274.3273 C393.1266,273.0629 392.8058,272.1146 392.2774,271.4825 C391.4659,270.5011 390.4139,270.0105 389.1212,270.0105 C387.9511,270.0105 386.9674,270.402 386.1701,271.1852 C385.3728,271.9684 384.9317,273.0157 384.8467,274.3273 z" stroke="#000000" stroke-width="0.24" fill="none" />
  <path d="M393.2116,278.446 C392.8247,279.5217 392.301,280.3049 391.6405,280.7956 C390.98,281.2862 390.1827,281.5316 389.2485,281.5316 C387.9936,281.5316 386.9462,281.0928 386.1064,280.2153 C385.2666,279.3377 384.7996,278.0733 384.7052,276.4221 L395.9149,276.4221 L395.9291,275.7427 C395.9291,273.2611 395.2922,271.3362 394.0183,269.968 C392.7445,268.5998 391.1027,267.9157 389.0929,267.9157 C387.017,267.9157 385.328,268.614 384.0258,270.0105 C382.7237,271.407 382.0726,273.3696 382.0726,275.8984 C382.0726,278.3423 382.7166,280.2412 384.0046,281.5952 C385.2926,282.9493 387.0359,283.6263 389.2344,283.6263 C390.98,283.6263 392.4142,283.2017 393.5371,282.3525 C394.66,281.5032 395.429,280.3096 395.8441,278.7716 z" stroke="#000000" stroke-width="0.24" fill="none" />
</svg>